<mxfile host="app.diagrams.net" agent="Mozilla/5.0 (Windows NT 10.0; Win64; x64) AppleWebKit/537.36 (KHTML, like Gecko) Chrome/129.0.0.0 Safari/537.36" version="24.7.16">
  <diagram name="Page-1" id="E3Aew93MKvQ94FIYd_fR">
    <mxGraphModel dx="1050" dy="574" grid="1" gridSize="10" guides="1" tooltips="1" connect="1" arrows="1" fold="1" page="1" pageScale="1" pageWidth="827" pageHeight="1169" math="0" shadow="0">
      <root>
        <mxCell id="0" />
        <mxCell id="1" parent="0" />
        <mxCell id="Mx1jPVl39tABdKHU91At-50" value="" style="rounded=1;whiteSpace=wrap;html=1;" vertex="1" parent="1">
          <mxGeometry x="100" y="16.5" width="700" height="593.5" as="geometry" />
        </mxCell>
        <mxCell id="Mx1jPVl39tABdKHU91At-52" value="VPC" style="sketch=0;outlineConnect=0;gradientColor=none;html=1;whiteSpace=wrap;fontSize=12;fontStyle=0;shape=mxgraph.aws4.group;grIcon=mxgraph.aws4.group_vpc;strokeColor=#879196;fillColor=none;verticalAlign=top;align=left;spacingLeft=30;fontColor=#879196;dashed=0;" vertex="1" parent="1">
          <mxGeometry x="130" y="80" width="640" height="480" as="geometry" />
        </mxCell>
        <mxCell id="Mx1jPVl39tABdKHU91At-2" value="&#xa;&lt;span style=&quot;color: rgb(0, 0, 0); font-family: Helvetica; font-size: 12px; font-style: normal; font-variant-ligatures: normal; font-variant-caps: normal; font-weight: 400; letter-spacing: normal; orphans: 2; text-align: center; text-indent: 0px; text-transform: none; widows: 2; word-spacing: 0px; -webkit-text-stroke-width: 0px; white-space: nowrap; background-color: rgb(251, 251, 251); text-decoration-thickness: initial; text-decoration-style: initial; text-decoration-color: initial; display: inline !important; float: none;&quot;&gt;Elastic &amp;amp; Kibanna&lt;/span&gt;&#xa;&#xa;" style="outlineConnect=0;dashed=0;verticalLabelPosition=bottom;verticalAlign=top;align=center;html=1;shape=mxgraph.aws3.traditional_server;fillColor=#dae8fc;strokeColor=#6c8ebf;" vertex="1" parent="1">
          <mxGeometry x="426.75" y="150" width="46.5" height="63" as="geometry" />
        </mxCell>
        <mxCell id="Mx1jPVl39tABdKHU91At-34" value="Windows Server&amp;nbsp;&lt;div&gt;with RDP Enabled&lt;/div&gt;" style="outlineConnect=0;dashed=0;verticalLabelPosition=bottom;verticalAlign=top;align=center;html=1;shape=mxgraph.aws3.traditional_server;fillColor=#7D7C7C;gradientColor=none;" vertex="1" parent="1">
          <mxGeometry x="210" y="420" width="46.5" height="63" as="geometry" />
        </mxCell>
        <mxCell id="Mx1jPVl39tABdKHU91At-38" value="&#xa;&lt;span style=&quot;color: rgb(0, 0, 0); font-family: Helvetica; font-size: 12px; font-style: normal; font-variant-ligatures: normal; font-variant-caps: normal; font-weight: 400; letter-spacing: normal; orphans: 2; text-align: center; text-indent: 0px; text-transform: none; widows: 2; word-spacing: 0px; -webkit-text-stroke-width: 0px; white-space: nowrap; background-color: rgb(251, 251, 251); text-decoration-thickness: initial; text-decoration-style: initial; text-decoration-color: initial; display: inline !important; float: none;&quot;&gt;Ubuntu Server&lt;/span&gt;&#xa;&#xa;" style="outlineConnect=0;dashed=0;verticalLabelPosition=bottom;verticalAlign=top;align=center;html=1;shape=mxgraph.aws3.traditional_server;fillColor=#7D7C7C;gradientColor=none;" vertex="1" parent="1">
          <mxGeometry x="660" y="420" width="46.5" height="63" as="geometry" />
        </mxCell>
        <mxCell id="Mx1jPVl39tABdKHU91At-61" style="edgeStyle=orthogonalEdgeStyle;rounded=0;orthogonalLoop=1;jettySize=auto;html=1;startArrow=classic;startFill=1;fillColor=#ffe6cc;strokeColor=#d79b00;dashed=1;dashPattern=12 12;" edge="1" parent="1" source="Mx1jPVl39tABdKHU91At-42" target="Mx1jPVl39tABdKHU91At-2">
          <mxGeometry relative="1" as="geometry" />
        </mxCell>
        <mxCell id="Mx1jPVl39tABdKHU91At-67" value="Managed Agents" style="edgeLabel;html=1;align=center;verticalAlign=middle;resizable=0;points=[];" vertex="1" connectable="0" parent="Mx1jPVl39tABdKHU91At-61">
          <mxGeometry x="-0.171" y="-2" relative="1" as="geometry">
            <mxPoint as="offset" />
          </mxGeometry>
        </mxCell>
        <mxCell id="Mx1jPVl39tABdKHU91At-42" value="Fleet Server" style="outlineConnect=0;dashed=0;verticalLabelPosition=bottom;verticalAlign=top;align=center;html=1;shape=mxgraph.aws3.traditional_server;fillColor=#d5e8d4;strokeColor=#82b366;" vertex="1" parent="1">
          <mxGeometry x="426.75" y="420" width="46.5" height="63" as="geometry" />
        </mxCell>
        <mxCell id="Mx1jPVl39tABdKHU91At-46" value="&#xa;&lt;span style=&quot;color: rgb(0, 0, 0); font-family: Helvetica; font-size: 12px; font-style: normal; font-variant-ligatures: normal; font-variant-caps: normal; font-weight: 400; letter-spacing: normal; orphans: 2; text-align: center; text-indent: 0px; text-transform: none; widows: 2; word-spacing: 0px; -webkit-text-stroke-width: 0px; white-space: nowrap; background-color: rgb(251, 251, 251); text-decoration-thickness: initial; text-decoration-style: initial; text-decoration-color: initial; display: inline !important; float: none;&quot;&gt;osTicket Server&lt;/span&gt;&#xa;&#xa;" style="outlineConnect=0;dashed=0;verticalLabelPosition=bottom;verticalAlign=top;align=center;html=1;shape=mxgraph.aws3.traditional_server;fillColor=#e1d5e7;strokeColor=#9673a6;" vertex="1" parent="1">
          <mxGeometry x="660" y="150" width="46.5" height="63" as="geometry" />
        </mxCell>
        <mxCell id="Mx1jPVl39tABdKHU91At-49" value="C2 Server" style="outlineConnect=0;dashed=0;verticalLabelPosition=bottom;verticalAlign=top;align=center;html=1;shape=mxgraph.aws3.traditional_server;fillColor=#a20025;strokeColor=#6F0000;fontColor=default;" vertex="1" parent="1">
          <mxGeometry x="860" y="120" width="46.5" height="70" as="geometry" />
        </mxCell>
        <mxCell id="Mx1jPVl39tABdKHU91At-51" value="VULTR" style="text;html=1;align=center;verticalAlign=middle;whiteSpace=wrap;rounded=0;" vertex="1" parent="1">
          <mxGeometry x="140" y="40" width="60" height="30" as="geometry" />
        </mxCell>
        <mxCell id="Mx1jPVl39tABdKHU91At-54" style="edgeStyle=orthogonalEdgeStyle;rounded=0;orthogonalLoop=1;jettySize=auto;html=1;entryX=0;entryY=0.5;entryDx=0;entryDy=0;entryPerimeter=0;" edge="1" parent="1" source="Mx1jPVl39tABdKHU91At-34" target="Mx1jPVl39tABdKHU91At-42">
          <mxGeometry relative="1" as="geometry" />
        </mxCell>
        <mxCell id="Mx1jPVl39tABdKHU91At-55" value="Managed" style="edgeLabel;html=1;align=center;verticalAlign=middle;resizable=0;points=[];" vertex="1" connectable="0" parent="Mx1jPVl39tABdKHU91At-54">
          <mxGeometry x="-0.052" relative="1" as="geometry">
            <mxPoint as="offset" />
          </mxGeometry>
        </mxCell>
        <mxCell id="Mx1jPVl39tABdKHU91At-58" style="edgeStyle=orthogonalEdgeStyle;rounded=0;orthogonalLoop=1;jettySize=auto;html=1;entryX=1;entryY=0.5;entryDx=0;entryDy=0;entryPerimeter=0;" edge="1" parent="1" source="Mx1jPVl39tABdKHU91At-38" target="Mx1jPVl39tABdKHU91At-42">
          <mxGeometry relative="1" as="geometry" />
        </mxCell>
        <mxCell id="Mx1jPVl39tABdKHU91At-60" value="Managed" style="edgeLabel;html=1;align=center;verticalAlign=middle;resizable=0;points=[];" vertex="1" connectable="0" parent="Mx1jPVl39tABdKHU91At-58">
          <mxGeometry x="0.0153" relative="1" as="geometry">
            <mxPoint as="offset" />
          </mxGeometry>
        </mxCell>
        <mxCell id="Mx1jPVl39tABdKHU91At-63" style="edgeStyle=orthogonalEdgeStyle;rounded=0;orthogonalLoop=1;jettySize=auto;html=1;entryX=0;entryY=0.5;entryDx=0;entryDy=0;entryPerimeter=0;endArrow=classic;endFill=1;dashed=1;dashPattern=12 12;startArrow=classic;startFill=1;" edge="1" parent="1" source="Mx1jPVl39tABdKHU91At-2" target="Mx1jPVl39tABdKHU91At-46">
          <mxGeometry relative="1" as="geometry" />
        </mxCell>
        <mxCell id="Mx1jPVl39tABdKHU91At-66" value="Alerts/Tickets" style="edgeLabel;html=1;align=center;verticalAlign=middle;resizable=0;points=[];" vertex="1" connectable="0" parent="Mx1jPVl39tABdKHU91At-63">
          <mxGeometry x="-0.0688" y="-2" relative="1" as="geometry">
            <mxPoint as="offset" />
          </mxGeometry>
        </mxCell>
        <mxCell id="Mx1jPVl39tABdKHU91At-64" style="rounded=0;orthogonalLoop=1;jettySize=auto;html=1;entryX=0;entryY=0.5;entryDx=0;entryDy=0;entryPerimeter=0;fillColor=#dae8fc;strokeColor=#6c8ebf;dashed=1;dashPattern=12 12;" edge="1" parent="1" source="Mx1jPVl39tABdKHU91At-34" target="Mx1jPVl39tABdKHU91At-2">
          <mxGeometry relative="1" as="geometry" />
        </mxCell>
        <mxCell id="Mx1jPVl39tABdKHU91At-68" value="Forward Logs via Agent" style="edgeLabel;html=1;align=center;verticalAlign=middle;resizable=0;points=[];" vertex="1" connectable="0" parent="Mx1jPVl39tABdKHU91At-64">
          <mxGeometry x="0.0281" y="-3" relative="1" as="geometry">
            <mxPoint as="offset" />
          </mxGeometry>
        </mxCell>
        <mxCell id="Mx1jPVl39tABdKHU91At-65" style="rounded=0;orthogonalLoop=1;jettySize=auto;html=1;entryX=1;entryY=0.5;entryDx=0;entryDy=0;entryPerimeter=0;fillColor=#dae8fc;strokeColor=#6c8ebf;dashed=1;dashPattern=12 12;" edge="1" parent="1" source="Mx1jPVl39tABdKHU91At-38" target="Mx1jPVl39tABdKHU91At-2">
          <mxGeometry relative="1" as="geometry" />
        </mxCell>
        <mxCell id="Mx1jPVl39tABdKHU91At-69" value="Forward Logs via Agent" style="edgeLabel;html=1;align=center;verticalAlign=middle;resizable=0;points=[];" vertex="1" connectable="0" parent="Mx1jPVl39tABdKHU91At-65">
          <mxGeometry x="-0.0582" y="1" relative="1" as="geometry">
            <mxPoint as="offset" />
          </mxGeometry>
        </mxCell>
        <mxCell id="Mx1jPVl39tABdKHU91At-70" value="Private Network: 172.32.0.0/24&lt;div&gt;IP Range: 172.32.0.1-255&lt;/div&gt;" style="text;html=1;align=center;verticalAlign=middle;whiteSpace=wrap;rounded=0;" vertex="1" parent="1">
          <mxGeometry x="170" y="150" width="200" height="30" as="geometry" />
        </mxCell>
      </root>
    </mxGraphModel>
  </diagram>
</mxfile>
